<svg width="40" height="40" viewBox="0 0 40 40" fill="none" xmlns="http://www.w3.org/2000/svg">
<g id="Menu">
<g id="Layer 2">
<g id="menu">
<path id="Vector" d="M33.4167 17.7451H6.58333C5.70888 17.7451 5 18.454 5 19.3284V19.4951C5 20.3696 5.70888 21.0784 6.58333 21.0784H33.4167C34.2911 21.0784 35 20.3696 35 19.4951V19.3284C35 18.454 34.2911 17.7451 33.4167 17.7451Z" fill="#46B5E6"/>
<path id="Vector_2" d="M33.4167 26.0784H6.58333C5.70888 26.0784 5 26.7873 5 27.6618V27.8284C5 28.7029 5.70888 29.4118 6.58333 29.4118H33.4167C34.2911 29.4118 35 28.7029 35 27.8284V27.6618C35 26.7873 34.2911 26.0784 33.4167 26.0784Z" fill="#46B5E6"/>
<path id="Vector_3" d="M33.4167 9.41177H6.58333C5.70888 9.41177 5 10.1206 5 10.9951V11.1618C5 12.0362 5.70888 12.7451 6.58333 12.7451H33.4167C34.2911 12.7451 35 12.0362 35 11.1618V10.9951C35 10.1206 34.2911 9.41177 33.4167 9.41177Z" fill="#46B5E6"/>
</g>
</g>
</g>
</svg>
